<svg id="Layer_1" data-name="Layer 1" xmlns="http://www.w3.org/2000/svg" viewBox="0 0 23.32 23.56"><defs><style>.cls-1{fill-opacity:0.04;}</style></defs><title>logo-simple-fp</title><path class="cls-1" d="M11.65,17.41a2.71,2.71,0,0,0,2.87-2.52H8.79A2.7,2.7,0,0,0,11.65,17.41Z"/><path class="cls-1" d="M21.33,5.41a3.08,3.08,0,1,0-4.6-4,11.62,11.62,0,0,0-10.12,0A3.08,3.08,0,0,0,.94,3.07,3,3,0,0,0,2,5.39,11.66,11.66,0,1,0,23.32,11.9,11.48,11.48,0,0,0,21.33,5.41ZM11.67,22.68A10.75,10.75,0,0,1,2.76,5.91,10.88,10.88,0,0,1,7,2.26a10.69,10.69,0,0,1,9.38,0,10.75,10.75,0,0,1-4.68,20.42Z"/><path class="cls-1" d="M11.65,14.18c.18,0,2-.58,2-1.45,0-.48-1.49-.58-2-.58s-2,.09-2,.58C9.62,13.6,11.47,14.22,11.65,14.18Z"/><path class="cls-1" d="M18.42,6.88c-1-.67-3.26-1.07-4.13.09a1.8,1.8,0,0,0,0,2.42,9.21,9.21,0,0,1,2.18,3.39c.25,1,.65,1.41,1.46,1.42S20.27,13,20.47,11A4.46,4.46,0,0,0,18.42,6.88ZM16.1,9.42a.61.61,0,0,1-.61-.61.62.62,0,0,1,.61-.61.61.61,0,0,1,.61.61A.63.63,0,0,1,16.1,9.42Z"/><path class="cls-1" d="M9,7c-.88-1.15-3.13-.76-4.13-.09a4.47,4.47,0,0,0-2,4.11C3,13,4.58,14.2,5.39,14.2s1.21-.41,1.46-1.42A9.36,9.36,0,0,1,9,9.39,1.8,1.8,0,0,0,9,7ZM7.38,9.42A.61.61,0,1,1,8,8.81.63.63,0,0,1,7.38,9.42Z"/></svg>