<svg xmlns="http://www.w3.org/2000/svg" version="1.1" xmlns:xlink="http://www.w3.org/1999/xlink" xmlns:svgjs="http://svgjs.dev/svgjs" width="100%" height="100%" viewBox="0 0 1000 600"><rect width="1000" height="600" x="0" y="0" fill="#ffffff"/><g><rect width="333.3333333333333" height="333.3333333333333" y="256.05287317442895" fill="#e53e3e" transform="matrix(0.5345749207099406,0,0,0.5345749207099405,0,74.02473441119515)" x="233.83070373535153"/><path d="M343.0779000430359 372.2401233095285L354.7517040029631 357.9690376073209L295.23764601587044 360.1753307002258L284.988157850097 386.93012542178127L273.5098482148577 385.3103153029397L277.9503621613371 347.71954944154754L375.4741024198672 347.71954944154754L380.0821829303648 356.34922748847936L303.6718297381144 472.1935787463209L290.2106490953276 487.0511474225918L359.7787009235059 483.4484662962028L370.22368341396697 451.8621689787923L382.0929816985819 454.4873784817424L377.4849011880844 497.7195519984104L270.493650062532 497.7195519984104L265.07566449261367 488.86645186612117L343.0779000430359 372.2401233095285ZM507.1814217380883 497.7195519984104Q503.7463071757174 497.7195519984104 498.41210488780814 489.5646458828632Q493.10583036056846 481.4376675279857 483.2473308441707 463.92696158809497L483.2473308441707 463.92696158809497Q482.04643713537433 461.72066849519007 476.5167405227773 451.9738800214711Q470.98704391018026 442.22709154775197 466.23932459633426 435.18929585899207Q461.519533043158 428.15150017023217 457.91685191676896 424.12990263379794L457.91685191676896 424.12990263379794L437.58544214924035 447.05859414360697L437.58544214924035 485.85025371379544L455.90605314855185 487.86105248201255L455.90605314855185 497.7195519984104L399.3802655531152 497.7195519984104L399.3802655531152 487.86105248201255L416.08106643358514 485.85025371379544L416.08106643358514 360.7897414349588L399.60368763847265 358.3600262566965L399.60368763847265 348.3060324156109L454.2862430297103 348.3060324156109L454.2862430297103 358.3600262566965L437.58544214924035 360.7897414349588L437.58544214924035 431.16769832255784L496.7085114869575 360.7897414349588L479.81221628179975 358.3600262566965L479.81221628179975 348.3060324156109L529.4957025131644 348.3060324156109L529.4957025131644 358.3600262566965L513.9957953414907 360.7897414349588L470.568127500135 409.4399005215451Q477.6059231888949 415.47229682619644 485.56533497975437 426.9506064614358Q493.49681900994403 438.4009883360055 504.94720088451373 456.49817724995955L504.94720088451373 456.49817724995955Q514.8057004009115 471.9701566609635 519.3299976294002 478.5052526576691Q523.8542948578886 485.04034865437467 526.4795043608387 485.6547593891077L526.4795043608387 485.6547593891077L535.9190874671913 487.86105248201255L535.9190874671913 497.7195519984104L507.1814217380883 497.7195519984104Z " fill="#fff5f5" transform="matrix(0.5345749207099406,0,0,0.5345749207099405,0,74.02473441119515)"/><path d="M704.5763689181608 376.00791920213834L712.6698243218048 366.11376678285114L671.408691630022 367.64339112947283L664.3027152349567 386.1925066239486L656.3447961658236 385.06949128085927L659.4234071925686 359.0077903877858L727.0366757799478 359.0077903877858L730.2314608077019 364.9907514397618L677.2561163474873 445.3057108041516L667.9234715997447 455.6064722269711L716.155044352082 453.10873120527236L723.3965570816582 431.2099320150301L731.6255488198129 433.0299913641749L728.4307637920587 463.00288362455956L654.2536641476572 463.00288362455956L650.4973714483584 456.8650239045713L704.5763689181608 376.00791920213834ZM750.7361719858333 455.06432688892795L750.7361719858333 359.0077903877858L739.0219602174013 357.4781660411641L739.0219602174013 351.47584265568656L761.7339774147082 348.8232029659755L762.0244124172315 348.8232029659755L765.0836611104747 350.9143349841419L765.0836611104747 383.268794265216L764.5221534389301 395.1185423681587Q768.9948524777859 391.07181466633676 776.7978728789068 387.4510583015487Q784.6008932800274 383.8109396032591 792.5588123491606 383.8109396032591L792.5588123491606 383.8109396032591Q801.3299494253584 383.8109396032591 806.2092574677466 387.1606232990256Q811.0885655101348 390.51030699479213 813.0441611937905 397.4032977213405Q814.999756877446 404.31565078139045 814.999756877446 416.02986254982244L814.999756877446 416.02986254982244L814.999756877446 454.9094282209157L824.7583729622226 456.1679798985158L824.7583729622226 463.00288362455956L791.4357970060713 463.00288362455956L791.4357970060713 456.1679798985158L800.4973690847922 454.9094282209157L800.4973690847922 415.87496388181006Q800.4973690847922 407.66533447715693 799.374353741703 402.97964976978415Q798.2707007321152 398.31332739591295 795.1920897053702 396.0092097092296Q792.1328410121267 393.72445435604783 785.9949812921385 393.72445435604783L785.9949812921385 393.72445435604783Q780.9801369152395 393.72445435604783 775.2682485322849 396.2221953777465Q769.5563601493305 398.7392987329468 765.2191974449855 402.0889824287133L765.2191974449855 402.0889824287133L765.2191974449855 454.9094282209157L774.8422771952511 456.1679798985158L774.8422771952511 463.00288362455956L742.3716439131678 463.00288362455956L742.3716439131678 456.1679798985158L750.7361719858333 455.06432688892795ZM835.0784967185435 442.09156344289585Q835.0784967185435 428.983263662353 848.167434165585 422.78731694186007Q861.2757339461278 416.57200788786554 881.3544737872252 416.16539888433323L881.3544737872252 416.16539888433323L881.3544737872252 412.25420751702205Q881.3544737872252 405.70973879350134 879.9603857751143 401.93408376070096Q878.5662977630035 398.17779106140216 875.1585270667323 396.4351810462635Q871.7313940369596 394.6925710311248 865.4579979824606 394.6925710311248L865.4579979824606 394.6925710311248Q858.3520215873951 394.6925710311248 852.6982202049454 396.7062537152851Q847.0637811559972 398.7392987329468 841.4874291075533 401.6630110916794L841.4874291075533 401.6630110916794L838.0022090772762 394.42149836210325Q839.8029060929194 392.87251168198003 844.6822141353076 390.37477066028134Q849.5615221776958 387.85766730508107 855.9898169002073 385.9020716214255Q862.3987492892171 383.9658382712714 868.8076816782269 383.9658382712714L868.8076816782269 383.9658382712714Q878.701834097514 383.9658382712714 884.4911718144748 386.6765649614871Q890.2805095314353 389.38729165170275 892.778250553134 395.3896150371803Q895.2953539083343 401.39193842265786 895.2953539083343 411.4216271764558L895.2953539083343 411.4216271764558L895.2953539083343 456.1679798985158L903.524345646489 456.1679798985158L903.524345646489 462.3058396185041Q900.7361696222671 463.00288362455956 896.4764562519284 463.69992763061504Q892.236105215091 464.39697163667046 889.0219578538353 464.39697163667046L889.0219578538353 464.39697163667046Q885.1107664865241 464.39697163667046 883.7166784744132 463.21586929307654Q882.3225904623022 462.03476694948256 882.3225904623022 457.9880392476606L882.3225904623022 457.9880392476606L882.3225904623022 453.37980387429394Q878.1403264259694 457.5620679106267 872.0799160399873 461.04728794090397Q866.0195056540052 464.53250797118125 858.3520215873951 464.53250797118125L858.3520215873951 464.53250797118125Q848.3223328335972 464.53250797118125 841.7004147760703 458.7431702542207Q835.0784967185435 452.97319487076163 835.0784967185435 442.09156344289585L835.0784967185435 442.09156344289585ZM864.3543449728728 455.06432688892795Q867.9751013376607 455.06432688892795 872.7188730455381 452.8182962027493Q877.443282419914 450.59162785007214 881.3544737872252 447.53237915682877L881.3544737872252 447.53237915682877L881.3544737872252 423.54244794842015Q866.155041988516 423.54244794842015 858.4294709214013 428.22813265579293Q850.684537520785 432.89445502966413 850.684537520785 440.4264027617634L850.684537520785 440.4264027617634Q850.684537520785 447.9389881603611 854.3827432195793 451.50165752464454Q858.0809489183736 455.06432688892795 864.3543449728728 455.06432688892795L864.3543449728728 455.06432688892795ZM911.5984387166314 424.80099962602026Q911.5984387166314 413.2416865256006 916.1292247559919 403.88967944435655Q920.6600107953524 394.55703469661404 929.5279595390579 389.03876964867504Q938.3765459492619 383.5398669342375 950.7878017237493 383.5398669342375L950.7878017237493 383.5398669342375Q956.7707627757253 383.5398669342375 961.0885631465688 384.6628822773269Q965.4257258509139 385.7665352869147 971.4086869028898 387.7221309705703L971.4086869028898 387.7221309705703L970.8471792313452 409.1949588237787L961.7856071526243 409.1949588237787L958.7263584593808 394.9636437001464Q957.8937781188146 391.07181466633676 948.1351620340382 391.07181466633676L948.1351620340382 391.07181466633676Q938.3765459492619 391.07181466633676 932.7227445668121 398.95228440146377Q927.0883055178639 406.8133918030892 927.0883055178639 421.315779595743L927.0883055178639 421.315779595743Q927.0883055178639 437.77376307205236 933.4197885728676 446.3512768132348Q939.7706339613727 454.9094282209157 949.9358590496814 454.9094282209157L949.9358590496814 454.9094282209157Q955.8026461006483 454.9094282209157 961.0304761460642 453.10873120527236Q966.2583061914801 451.28867185612756 970.014598890779 448.7909308344289L970.014598890779 448.7909308344289L972.6672385804901 454.36728288287253Q968.9109458811912 458.2591119166822 961.5919838176088 461.39580994393174Q954.2730217540267 464.53250797118125 946.7410740219274 464.53250797118125L946.7410740219274 464.53250797118125Q935.2979349225169 464.53250797118125 927.4368275208914 459.3821272597715Q919.5563577857646 454.2123842148602 915.5870794179488 445.2282614701454Q911.5984387166314 436.2441387254307 911.5984387166314 424.80099962602026L911.5984387166314 424.80099962602026ZM992.1844707500428 454.9094282209157L992.1844707500428 359.0077903877858L981.302839322177 357.4781660411641L981.302839322177 351.47584265568656L1003.4727111814408 348.8232029659755L1003.6082475159516 348.8232029659755L1006.6868585426965 350.9143349841419L1006.6868585426965 419.0891112430658L1006.3964235401735 427.31810298122053L1038.6153464867366 393.9955270250694L1028.1596863959048 392.0399313414138L1028.1596863959048 385.6309989524039L1061.8888713555884 385.6309989524039L1061.8888713555884 392.0399313414138L1050.8717035932118 393.9955270250694L1030.386354748582 413.93873053165606L1056.8740269786895 455.06432688892795L1065.5096277203766 456.1679798985158L1065.5096277203766 463.00288362455956L1031.6449064261824 463.00288362455956L1031.6449064261824 456.1679798985158L1040.41604350238 454.9094282209157L1020.7632749983164 422.57433127334315L1006.3964235401735 436.78628406347383L1006.6868585426965 443.9116227920407L1006.6868585426965 454.9094282209157L1016.5810109619837 456.1679798985158L1016.5810109619837 463.00288362455956L983.3939713403435 463.00288362455956L983.3939713403435 456.1679798985158L992.1844707500428 454.9094282209157ZM1094.2239683031607 347.7195499563877L1091.3002559444285 399.43634273900227L1082.1031475311966 399.43634273900227L1079.4505078414854 347.7195499563877L1094.2239683031607 347.7195499563877ZM1128.1080519308566 440.9685480998065L1130.6251552860572 451.85017952767225Q1132.019243298168 453.94131154583863 1136.5500293375285 455.6064722269711Q1141.080815376889 457.2909952416051 1146.095659753788 457.2909952416051L1146.095659753788 457.2909952416051Q1154.0342164894196 457.2909952416051 1157.80987152222 454.2123842148602Q1161.5661642215186 451.15313552161683 1161.5661642215186 445.71231980768397L1161.5661642215186 445.71231980768397Q1161.5661642215186 441.9560271083851 1159.2039595343308 439.16785108416326Q1156.8223925136413 436.37967505994146 1152.582041476804 434.2110937077689Q1148.3223281064652 432.0618746890979 1140.3837713708335 428.983263662353L1140.3837713708335 428.983263662353Q1129.6376762774785 424.93653596053105 1124.7002812345859 419.30209691158274Q1119.743523858191 413.64829552913295 1119.743523858191 404.45118711590123L1119.743523858191 404.45118711590123Q1119.743523858191 398.31332739591295 1123.4417295569856 393.72445435604783Q1127.1399352557796 389.11621898268123 1133.606954645294 386.5410286269763Q1140.0933363683102 383.9658382712714 1148.0512554374436 383.9658382712714L1148.0512554374436 383.9658382712714Q1154.4601878264534 383.9658382712714 1159.2620465348355 384.9339549463485Q1164.0832675767188 385.9020716214255 1167.0069799354515 386.88955063000407Q1169.9306922941842 387.85766730508107 1170.8988089692612 388.1481023076042L1170.8988089692612 388.1481023076042L1170.8988089692612 405.4193037909783L1162.3987445620846 405.4193037909783L1159.610568537863 395.1185423681587Q1158.777988197297 393.4340193535247 1155.1572318325088 392.25291700993074Q1151.5364754677207 391.07181466633676 1147.063776428865 391.07181466633676L1147.063776428865 391.07181466633676Q1140.7903803743657 391.07181466633676 1136.9566383410606 393.8599906905586Q1133.1228963077556 396.6481667147804 1133.1228963077556 401.39193842265786L1133.1228963077556 401.39193842265786Q1133.1228963077556 405.57420245899056 1135.1559413254176 408.2849291492062Q1137.1696240095775 410.9956558394219 1140.2288727028213 412.68017885405595Q1143.3074837295662 414.34533953518843 1148.5934007754868 416.57200788786554L1148.5934007754868 416.57200788786554L1151.3815767997085 417.6950232309549Q1159.2039595343308 420.7542719241983 1164.0832675767188 423.54244794842015Q1168.9625756191072 426.33062397264194 1172.2348099808673 430.8614100120024Q1175.507044342628 435.3921960513629 1175.507044342628 441.9560271083851L1175.507044342628 441.9560271083851Q1175.507044342628 452.27615086470615 1167.49103827299 458.39464825119296Q1159.4750322033524 464.53250797118125 1145.534152082243 464.53250797118125L1145.534152082243 464.53250797118125Q1138.6992483561994 464.53250797118125 1131.2447499581062 462.65436162153185Q1123.790251560013 460.77621527188245 1119.0464798521357 458.82061958822686L1119.0464798521357 458.82061958822686L1119.0464798521357 440.9685480998065L1128.1080519308566 440.9685480998065ZM1232.8001891736858 454.7738918864049L1232.8001891736858 368.06936246650673L1220.8149047362326 366.3848394518727L1220.8149047362326 359.4143993913181L1295.3986133841663 359.4143993913181L1296.7927013962772 383.1138955972037L1287.7311293175562 383.1138955972037L1283.5488652812237 367.64339112947283L1247.7285483033734 366.67527445439583L1247.7285483033734 407.1038268056123L1272.957668855881 406.6778554685784L1275.3198735430688 395.1185423681587L1282.7162849406573 395.1185423681587L1282.7162849406573 427.72471198475284L1275.4554098775798 427.72471198475284L1272.957668855881 415.60389121278854L1247.7285483033734 415.04238354124385L1247.7285483033734 454.7738918864049L1269.4724488256034 456.1679798985158L1269.4724488256034 463.00288362455956L1221.6474850767986 463.00288362455956L1221.6474850767986 456.1679798985158L1232.8001891736858 454.7738918864049ZM1307.38389782162 424.1039556199648Q1307.38389782162 411.5571635109666 1312.5536408665312 402.36005509773486Q1317.7040215779411 393.16294668450314 1326.1459989846126 388.34172564261956Q1334.5686140577827 383.5398669342375 1344.1916938080485 383.5398669342375L1344.1916938080485 383.5398669342375Q1361.7533302939455 383.5398669342375 1370.6019167041495 394.6925710311248Q1379.4698654478548 405.84527512801213 1379.4698654478548 423.96841928545405L1379.4698654478548 423.96841928545405Q1379.4698654478548 436.65074772896304 1374.3001224029435 445.84785614219476Q1369.149741691534 455.06432688892795 1360.7077642848622 459.78873626330386Q1352.285149211692 464.53250797118125 1342.6620694614267 464.53250797118125L1342.6620694614267 464.53250797118125Q1325.1004329755292 464.53250797118125 1316.2324842318235 453.37980387429394Q1307.38389782162 442.22709977740664 1307.38389782162 424.1039556199648L1307.38389782162 424.1039556199648ZM1343.4946498019926 456.5939512355497Q1353.1177295522584 456.5939512355497 1358.268110263668 448.63603216641656Q1363.4378533085796 440.697475430785 1363.4378533085796 425.09143462854337L1363.4378533085796 425.09143462854337Q1363.4378533085796 409.601567827311 1358.6940816007018 400.53999574859006Q1353.9503098928244 391.47842366986913 1343.4946498019926 391.47842366986913L1343.4946498019926 391.47842366986913Q1333.8715700517273 391.47842366986913 1328.643740006311 399.43634273900227Q1323.4159099608955 407.3748994746338 1323.4159099608955 423.000302610377L1323.4159099608955 423.000302610377Q1323.4159099608955 438.47080707810784 1328.2952180032835 447.53237915682877Q1333.1745260456719 456.5939512355497 1343.4946498019926 456.5939512355497L1343.4946498019926 456.5939512355497ZM1392.1521938913638 424.1039556199648Q1392.1521938913638 411.5571635109666 1397.3025746027738 402.36005509773486Q1402.472317647685 393.16294668450314 1410.8949327208552 388.34172564261956Q1419.3369101275266 383.5398669342375 1428.9599898777924 383.5398669342375L1428.9599898777924 383.5398669342375Q1446.5216263636894 383.5398669342375 1455.3702127738934 394.6925710311248Q1464.2187991840974 405.84527512801213 1464.2187991840974 423.96841928545405L1464.2187991840974 423.96841928545405Q1464.2187991840974 436.65074772896304 1459.0684184726879 445.84785614219476Q1453.8986754277762 455.06432688892795 1445.4760603546065 459.78873626330386Q1437.0340829479346 464.53250797118125 1427.4110031976693 464.53250797118125L1427.4110031976693 464.53250797118125Q1409.8493667117718 464.53250797118125 1401.0007803015678 453.37980387429394Q1392.1521938913638 442.22709977740664 1392.1521938913638 424.1039556199648L1392.1521938913638 424.1039556199648ZM1428.262945871737 456.5939512355497Q1437.866663288501 456.5939512355497 1443.0364063334123 448.63603216641656Q1448.1867870448218 440.697475430785 1448.1867870448218 425.09143462854337L1448.1867870448218 425.09143462854337Q1448.1867870448218 409.601567827311 1443.4430153369444 400.53999574859006Q1438.7186059625687 391.47842366986913 1428.262945871737 391.47842366986913L1428.262945871737 391.47842366986913Q1418.6398661214712 391.47842366986913 1413.4120360760553 399.43634273900227Q1408.1842060306394 407.3748994746338 1408.1842060306394 423.000302610377L1408.1842060306394 423.000302610377Q1408.1842060306394 438.47080707810784 1413.0635140730278 447.53237915682877Q1417.9428221154158 456.5939512355497 1428.262945871737 456.5939512355497L1428.262945871737 456.5939512355497ZM1507.0289185560032 464.53250797118125Q1498.6643904833381 464.53250797118125 1491.6939504227835 460.3502439348485Q1484.7235103622288 456.1679798985158 1480.5993333264005 447.53237915682877Q1476.4945186240743 438.87741608164015 1476.4945186240743 426.19508763813116L1476.4945186240743 426.19508763813116Q1476.4945186240743 414.34533953518843 1481.3738266664623 404.586723450412Q1486.2531347088507 394.8281073656356 1495.3727937880763 389.19366831668736Q1504.511815200803 383.5398669342375 1516.9230709752906 383.5398669342375L1516.9230709752906 383.5398669342375Q1524.0290473703562 383.5398669342375 1529.8764720878212 385.06949128085927L1529.8764720878212 385.06949128085927L1529.8764720878212 359.0077903877858L1515.6645192976903 357.32326737315174L1515.6645192976903 351.3403063211758L1540.7581035156868 348.8232029659755L1541.1840748527206 348.8232029659755L1544.2433235459644 351.04987131865266L1544.2433235459644 455.8969072294942L1552.3367789496083 455.8969072294942L1552.3367789496083 462.3058396185041Q1547.8640799107525 463.27395629358114 1544.5918455489918 463.8354639651258Q1541.3196111872317 464.39697163667046 1537.6988548224435 464.39697163667046L1537.6988548224435 464.39697163667046Q1534.0587361241537 464.39697163667046 1532.5291117775323 463.13841995907035Q1530.9994874309104 461.87986828147024 1530.9994874309104 457.8525029131498L1530.9994874309104 457.8525029131498L1530.9994874309104 453.37980387429394Q1527.0882960635995 458.1235755821714 1520.7568130085956 461.3377229434271Q1514.4059676200905 464.53250797118125 1507.0289185560032 464.53250797118125L1507.0289185560032 464.53250797118125ZM1512.605270604447 454.6383555518941Q1518.0267239848786 454.6383555518941 1522.770495692756 452.1987015307Q1527.5142674006333 449.7590475095059 1529.8764720878212 446.5449001482502L1529.8764720878212 446.5449001482502L1529.8764720878212 395.5251513716911Q1528.7728190782332 393.8599906905586 1524.6486420424053 392.5239896789523Q1520.5438273400787 391.20735100084755 1515.9355919667119 391.20735100084755L1515.9355919667119 391.20735100084755Q1505.073322872348 391.20735100084755 1498.5869411493318 399.49442973950687Q1492.1005594263156 407.8008708116677 1492.1005594263156 425.09143462854337L1492.1005594263156 425.09143462854337Q1492.1005594263156 440.13596775924026 1497.81244780927 447.396842822318Q1503.543698525726 454.6383555518941 1512.605270604447 454.6383555518941L1512.605270604447 454.6383555518941ZM1574.7777234778937 497.71954759282164Q1572.3961564572041 497.71954759282164 1570.1114011040222 497.42911259029853Q1567.807283417339 497.15803992127695 1566.8198044087603 496.59653224973226L1566.8198044087603 496.59653224973226L1566.8198044087603 484.4757114777679Q1567.671747082828 485.03721914931265 1570.1114011040222 485.30829181833417Q1572.5510551252164 485.57936448735575 1574.7777234778937 485.57936448735575L1574.7777234778937 485.57936448735575Q1581.457728535925 485.57936448735575 1586.55002224683 480.9130421134845Q1591.6423159577353 476.24671973961324 1596.3860876656126 463.00288362455956L1596.3860876656126 463.00288362455956L1589.6867202740796 463.00288362455956L1563.1990480439722 393.9955270250694L1556.7901156549624 392.1754676759246L1556.7901156549624 385.6309989524039L1590.383764280135 385.6309989524039L1590.383764280135 392.1754676759246L1579.6570315202816 393.8599906905586L1593.3074766388677 434.9855870478305L1599.7357713613792 455.33539955794953L1605.7187324133552 434.8500507133197L1618.1299881878426 393.8599906905586L1608.7973434401001 392.1754676759246L1608.7973434401001 385.6309989524039L1636.8146400168293 385.6309989524039L1636.8146400168293 392.1754676759246L1629.8441999562747 393.8599906905586Q1609.3394887781433 456.5939512355497 1605.7187324133552 465.09401564272594L1605.7187324133552 465.09401564272594Q1600.9749607054778 477.0793000801795 1597.083131671668 483.83675447221714Q1593.1719403043571 490.61357119775624 1587.8860232584366 494.1568782285381Q1582.5807438790143 497.71954759282164 1574.7777234778937 497.71954759282164L1574.7777234778937 497.71954759282164Z " fill="black" transform="matrix(0.5345749207099406,0,0,0.5345749207099405,0,74.02473441119515)"/></g></svg>