<svg xmlns="http://www.w3.org/2000/svg" version="1.1" xmlns:xlink="http://www.w3.org/1999/xlink" xmlns:svgjs="http://svgjs.dev/svgjs" width="100%" height="100%" viewBox="0 0 1000 600"><rect width="1000" height="600" x="0" y="0" fill="transparent"/><g><circle r="166.66666666666666" cx="395.69347635904944" cy="417.91573872682784" fill="#fc8181" transform="matrix(0.5457876526388727,0,0,0.5457876526388726,0,71.90676903293145)"/><path d="M307.5684674566909 462.9157577441945L307.5684674566909 448.2074244108611L338.17263412335757 372.9157577441945L309.0684674566909 372.9157577441945L309.0684674566909 357.9157577441945L355.86013412335757 357.9157577441945L355.86013412335757 372.6240910775278L325.2559674566909 447.9157577441945L355.86013412335757 447.9157577441945L355.86013412335757 462.9157577441945L307.5684674566909 462.9157577441945ZM389.7559674566909 492.9157577441944L389.7559674566909 342.9157577441945L403.2559674566908 342.9157577441945L403.2559674566908 492.9157577441944L389.7559674566909 492.9157577441944ZM440.1726341233575 462.9157577441945L440.1726341233575 357.9157577441945L483.8184674566909 357.9157577441945L483.8184674566909 372.9157577441945L456.6726341233575 372.9157577441945L456.6726341233575 402.1657577441945L477.9643007900242 402.1657577441945L477.9643007900242 417.1657577441945L456.6726341233575 417.1657577441945L456.6726341233575 462.9157577441945L440.1726341233575 462.9157577441945Z " fill="white" transform="matrix(0.5457876526388727,0,0,0.5457876526388726,0,71.90676903293145)"/><path d="M645.6934674528275 490.8324240637806L645.6934674528275 470.40418338316914L688.1992543647513 365.8324244317105L647.7768007800286 365.8324244317105L647.7768007800286 344.9990911596988L712.7652265146651 344.9990911596988L712.7652265146651 365.4273318403103L670.2594396027413 469.9990907917689L712.7652265146651 469.9990907917689L712.7652265146651 490.8324240637806L645.6934674528275 490.8324240637806ZM725.6992542543722 490.8324240637806L725.6992542543722 344.9990911596988L748.6159208535852 344.9990911596988L748.6159208535852 404.37409098493214L773.181893003499 404.37409098493214L773.181893003499 344.9990911596988L796.0985596027118 344.9990911596988L796.0985596027118 490.8324240637806L773.181893003499 490.8324240637806L773.181893003499 425.2074242569438L748.6159208535852 425.2074242569438L748.6159208535852 490.8324240637806L725.6992542543722 490.8324240637806ZM807.151800310918 490.8324240637806L830.9075872780313 344.9990911596988L861.9261057052487 344.9990911596988L885.681892672362 490.8324240637806L862.7652260731492 490.8324240637806L858.5985594187468 461.86830377866437L858.5985594187468 462.3023315551646L832.5568928287323 462.3023315551646L828.3902261743299 490.8324240637806L807.151800310918 490.8324240637806ZM835.2768002281338 442.5106649467535L855.9075872044453 442.5106649467535L845.6934668641396 370.40418367751306L845.2594390876394 370.40418367751306L835.2768002281338 442.5106649467535ZM928.5927721756862 492.91575739098175Q912.157587038877 492.91575739098175 903.505966693972 483.54075741857645Q894.8543463490671 474.16575744617126 894.8543463490671 457.09399823716166L894.8543463490671 457.09399823716166L894.8543463490671 378.73751698631776Q894.8543463490671 361.66575777730816 903.505966693972 352.2907578049029Q912.157587038877 342.91575783249766 928.5927721756862 342.91575783249766L928.5927721756862 342.91575783249766Q945.0568924975953 342.91575783249766 953.7085128425001 352.2907578049029Q962.360133187405 361.66575777730816 962.360133187405 378.73751698631776L962.360133187405 378.73751698631776L962.360133187405 394.1599706446264L940.6876795474928 394.1599706446264L940.6876795474928 377.2907577313169Q940.6876795474928 363.7490911045093 929.2293462478865 363.7490911045093L929.2293462478865 363.7490911045093Q917.77101294828 363.7490911045093 917.77101294828 377.2907577313169L917.77101294828 377.2907577313169L917.77101294828 458.7433037878626Q917.77101294828 472.0824241189701 929.2293462478865 472.0824241189701L929.2293462478865 472.0824241189701Q940.6876795474928 472.0824241189701 940.6876795474928 458.7433037878626L940.6876795474928 458.7433037878626L940.6876795474928 436.4632112608501L962.360133187405 436.4632112608501L962.360133187405 457.09399823716166Q962.360133187405 474.16575744617126 953.7085128425001 483.54075741857645Q945.0568924975953 492.91575739098175 928.5927721756862 492.91575739098175L928.5927721756862 492.91575739098175ZM976.1043461099127 490.8324240637806L976.1043461099127 344.9990911596988L999.0210127091257 344.9990911596988L999.0210127091257 406.4574243121333L1028.187679289942 344.9990911596988L1051.104345889155 344.9990911596988L1023.8184663398395 398.52918359472886L1051.5094384805552 490.8324240637806L1027.5511052177417 490.8324240637806L1008.1934663858308 425.84399832914414L999.0210127091257 444.36251679315455L999.0210127091257 490.8324240637806L976.1043461099127 490.8324240637806ZM1067.134438434564 392.0766373174252L1061.723558820861 344.9990911596988L1085.0742531965739 344.9990911596988L1079.4318921020708 392.0766373174252L1067.134438434564 392.0766373174252ZM1131.3126789864 492.91575739098175Q1114.6460123687907 492.91575739098175 1106.110132764286 483.4250166781764Q1097.5742531597807 473.9632111504711 1097.5742531597807 456.2548778692612L1097.5742531597807 456.2548778692612L1097.5742531597807 447.92154456045654L1119.217771614593 447.92154456045654L1119.217771614593 457.9041834199621Q1119.217771614593 472.0824241189701 1131.1101326906996 472.0824241189701L1131.1101326906996 472.0824241189701Q1136.9261048958028 472.0824241189701 1139.9642993313046 468.63913709206815Q1142.9735585817066 465.1958500651662 1142.9735585817066 457.4990908285619L1142.9735585817066 457.4990908285619Q1142.9735585817066 448.32663715185674 1138.8068919273042 441.35325754275283Q1134.6402252729017 434.37987793364897 1123.3844382689954 424.57085018474345L1123.3844382689954 424.57085018474345Q1109.2351327550873 412.07085022153643 1103.5927716605843 401.97247062163075Q1097.9793457511814 391.87409102172506 1097.9793457511814 379.171544762818L1097.9793457511814 379.171544762818Q1097.9793457511814 361.8683040730083 1106.717771651386 352.40649854530295Q1115.485132736691 342.91575783249766 1132.1517993543002 342.91575783249766L1132.1517993543002 342.91575783249766Q1148.6159196762096 342.91575783249766 1157.0360585403141 352.40649854530295Q1165.4851325895188 361.8683040730083 1165.4851325895188 379.5766373542182L1165.4851325895188 379.5766373542182L1165.4851325895188 385.6240910401216L1143.8126789496068 385.6240910401216L1143.8126789496068 378.12987809921736Q1143.8126789496068 370.6356651583132 1140.8902252545054 367.19237813141126Q1137.9677715594034 363.7490911045093 1132.3543456500006 363.7490911045093L1132.3543456500006 363.7490911045093Q1120.896012350394 363.7490911045093 1120.896012350394 377.69585032271715L1120.896012350394 377.69585032271715Q1120.896012350394 385.6240910401216 1125.1784197451966 392.51066509392547Q1129.4318919548987 399.3683039626293 1140.687678958805 409.1773317115348L1140.687678958805 409.1773317115348Q1155.0684659535132 421.6773316747418 1160.4793455672161 431.86251682994754Q1165.890225180919 442.07663717025326 1165.890225180919 455.82085009276096L1165.890225180919 455.82085009276096Q1165.890225180919 473.76066485477105 1157.0360585403141 483.3382111228764Q1148.1818918997092 492.91575739098175 1131.3126789864 492.91575739098175L1131.3126789864 492.91575739098175ZM1212.3601324515453 490.8324240637806L1212.3601324515453 344.9990911596988L1272.9793452360796 344.9990911596988L1272.9793452360796 365.8324244317105L1235.2767990507582 365.8324244317105L1235.2767990507582 406.4574243121333L1264.848558222975 406.4574243121333L1264.848558222975 427.29075758414496L1235.2767990507582 427.29075758414496L1235.2767990507582 490.8324240637806L1212.3601324515453 490.8324240637806ZM1317.134437698704 492.91575739098175Q1300.2652247853948 492.91575739098175 1291.3242525894898 483.3382111228764Q1282.3543452084846 473.76066485477105 1282.3543452084846 456.2548778692612L1282.3543452084846 456.2548778692612L1282.3543452084846 379.5766373542182Q1282.3543452084846 362.0708503687084 1291.3242525894898 352.49330410060304Q1300.2652247853948 342.91575783249766 1317.134437698704 342.91575783249766L1317.134437698704 342.91575783249766Q1334.0325857971134 342.91575783249766 1342.9735579930184 352.49330410060304Q1351.9434653740236 362.0708503687084 1351.9434653740236 379.5766373542182L1351.9434653740236 379.5766373542182L1351.9434653740236 456.2548778692612Q1351.9434653740236 473.76066485477105 1342.9735579930184 483.3382111228764Q1334.0325857971134 492.91575739098175 1317.134437698704 492.91575739098175L1317.134437698704 492.91575739098175ZM1317.134437698704 472.0824241189701Q1329.0267987748107 472.0824241189701 1329.0267987748107 457.70163712426205L1329.0267987748107 457.70163712426205L1329.0267987748107 378.12987809921736Q1329.0267987748107 363.7490911045093 1317.134437698704 363.7490911045093L1317.134437698704 363.7490911045093Q1305.2710118076975 363.7490911045093 1305.2710118076975 378.12987809921736L1305.2710118076975 378.12987809921736L1305.2710118076975 457.70163712426205Q1305.2710118076975 472.0824241189701 1317.134437698704 472.0824241189701L1317.134437698704 472.0824241189701ZM1400.4677707867509 492.91575739098175Q1383.5985578734412 492.91575739098175 1374.6575856775362 483.3382111228764Q1365.6876782965314 473.76066485477105 1365.6876782965314 456.2548778692612L1365.6876782965314 456.2548778692612L1365.6876782965314 379.5766373542182Q1365.6876782965314 362.0708503687084 1374.6575856775362 352.49330410060304Q1383.5985578734412 342.91575783249766 1400.4677707867509 342.91575783249766L1400.4677707867509 342.91575783249766Q1417.3659188851602 342.91575783249766 1426.3068910810653 352.49330410060304Q1435.2767984620705 362.0708503687084 1435.2767984620705 379.5766373542182L1435.2767984620705 379.5766373542182L1435.2767984620705 456.2548778692612Q1435.2767984620705 473.76066485477105 1426.3068910810653 483.3382111228764Q1417.3659188851602 492.91575739098175 1400.4677707867509 492.91575739098175L1400.4677707867509 492.91575739098175ZM1400.4677707867509 472.0824241189701Q1412.3601318628575 472.0824241189701 1412.3601318628575 457.70163712426205L1412.3601318628575 457.70163712426205L1412.3601318628575 378.12987809921736Q1412.3601318628575 363.7490911045093 1400.4677707867509 363.7490911045093L1400.4677707867509 363.7490911045093Q1388.6043448957444 363.7490911045093 1388.6043448957444 378.12987809921736L1388.6043448957444 378.12987809921736L1388.6043448957444 457.70163712426205Q1388.6043448957444 472.0824241189701 1400.4677707867509 472.0824241189701L1400.4677707867509 472.0824241189701ZM1450.6992521203788 490.8324240637806L1450.6992521203788 344.9990911596988L1485.6818909062986 344.9990911596988Q1502.7825853004083 344.9990911596988 1511.318464904913 354.171544836404Q1519.8543445094178 363.3439985131091 1519.8543445094178 381.05233179431906L1519.8543445094178 381.05233179431906L1519.8543445094178 454.77918342916035Q1519.8543445094178 472.4875167103703 1511.318464904913 481.6599703870755Q1502.7825853004083 490.8324240637806 1485.6818909062986 490.8324240637806L1485.6818909062986 490.8324240637806L1450.6992521203788 490.8324240637806ZM1473.6159187195917 469.9990907917689L1485.2767983148983 469.9990907917689Q1490.8902242243016 469.9990907917689 1493.9284186598034 466.67154450526704Q1496.937677910205 463.3439982187652 1496.937677910205 455.82085009276096L1496.937677910205 455.82085009276096L1496.937677910205 380.01066513071845Q1496.937677910205 372.4875170047142 1493.9284186598034 369.1599707182124Q1490.8902242243016 365.8324244317105 1485.2767983148983 365.8324244317105L1485.2767983148983 365.8324244317105L1473.6159187195917 365.8324244317105L1473.6159187195917 469.9990907917689ZM1552.551103672436 490.8324240637806L1552.551103672436 428.73751683914577L1524.8601315317205 344.9990911596988L1549.2235573859343 344.9990911596988L1564.848557339943 398.52918359472886L1565.2825851164434 398.52918359472886L1580.9075850704517 344.9990911596988L1603.1876775974642 344.9990911596988L1575.467770271649 428.73751683914577L1575.467770271649 490.8324240637806L1552.551103672436 490.8324240637806Z " fill="#2d3748" transform="matrix(0.5457876526388727,0,0,0.5457876526388726,0,71.90676903293145)"/></g></svg>