<svg xmlns="http://www.w3.org/2000/svg" viewBox="0 0 500 500"><g id="freepik--background-complete--inject-12"><path d="M238.4,445.05H45.3a5.71,5.71,0,0,1-5.71-5.71V60.66A5.71,5.71,0,0,1,45.3,55H238.4a5.71,5.71,0,0,1,5.71,5.71V439.34A5.71,5.71,0,0,1,238.4,445.05ZM45.3,55.2a5.47,5.47,0,0,0-5.46,5.46V439.34a5.47,5.47,0,0,0,5.46,5.46H238.4a5.47,5.47,0,0,0,5.46-5.46V60.66a5.47,5.47,0,0,0-5.46-5.46Z" style="fill:#ebebeb"></path><path d="M454.7,445.05H261.6a5.71,5.71,0,0,1-5.71-5.71V60.66A5.71,5.71,0,0,1,261.6,55H454.7a5.71,5.71,0,0,1,5.71,5.71V439.34A5.71,5.71,0,0,1,454.7,445.05ZM261.6,55.2a5.47,5.47,0,0,0-5.46,5.46V439.34a5.47,5.47,0,0,0,5.46,5.46H454.7a5.47,5.47,0,0,0,5.46-5.46V60.66a5.47,5.47,0,0,0-5.46-5.46Z" style="fill:#ebebeb"></path><polygon points="113.05 168.25 114.67 171.52 118.29 172.05 115.67 174.6 116.29 178.2 113.05 176.5 109.82 178.2 110.44 174.6 107.82 172.05 111.44 171.52 113.05 168.25" style="fill:#ebebeb"></polygon><polygon points="436.7 322.48 438.32 325.76 441.94 326.29 439.32 328.83 439.94 332.44 436.7 330.74 433.47 332.44 434.09 328.83 431.47 326.29 435.09 325.76 436.7 322.48" style="fill:#f5f5f5"></polygon><polygon points="372.6 417.57 374.22 420.84 377.83 421.37 375.21 423.92 375.83 427.52 372.6 425.82 369.37 427.52 369.98 423.92 367.37 421.37 370.98 420.84 372.6 417.57" style="fill:#f5f5f5"></polygon><path d="M225.94,110.15l.6,1.22,1.35.2a.4.4,0,0,1,.22.69l-1,.95.23,1.34a.41.41,0,0,1-.59.43l-1.2-.64-1.2.64a.41.41,0,0,1-.59-.43l.22-1.34-1-.95a.4.4,0,0,1,.23-.69l1.34-.2.6-1.22A.41.41,0,0,1,225.94,110.15Z" style="fill:#ebebeb"></path><path d="M60.78,402l.6,1.21,1.34.2a.41.41,0,0,1,.23.7l-1,.94.23,1.34a.41.41,0,0,1-.59.43l-1.2-.63-1.2.63a.41.41,0,0,1-.59-.43l.23-1.34-1-.94a.41.41,0,0,1,.22-.7l1.34-.2L60,402A.41.41,0,0,1,60.78,402Z" style="fill:#f5f5f5"></path><path d="M87.75,97.3l.6,1.22,1.35.19a.41.41,0,0,1,.22.7l-1,1,.23,1.33a.4.4,0,0,1-.59.43l-1.2-.63-1.2.63a.4.4,0,0,1-.59-.43l.22-1.33-1-1a.41.41,0,0,1,.23-.7l1.34-.19L87,97.3A.41.41,0,0,1,87.75,97.3Z" style="fill:#ebebeb"></path><path d="M86.13,338.32A1.33,1.33,0,1,1,84.8,337,1.33,1.33,0,0,1,86.13,338.32Z" style="fill:#ebebeb"></path><path d="M275.67,171.89a1.33,1.33,0,1,1-1.33-1.32A1.32,1.32,0,0,1,275.67,171.89Z" style="fill:#ebebeb"></path><path d="M206.71,98.4a1.33,1.33,0,1,1-1.33-1.33A1.34,1.34,0,0,1,206.71,98.4Z" style="fill:#f5f5f5"></path><circle cx="207.14" cy="415.38" r="7.35" transform="translate(-89.89 58.7) rotate(-13.28)" style="fill:#f0f0f0"></circle><path d="M204.6,411.09a7.09,7.09,0,0,0-4.19,1.36,7.34,7.34,0,0,0,10.5,9.23s0,0,0,0a7.17,7.17,0,0,0-6.31-10.58Z" style="fill:#e6e6e6"></path></g><g id="freepik--404--inject-12"><path d="M147.68,287.64H86.83V260.17l60.85-72.34H176.8v73.9h15.09v25.91H176.8v22.48H147.68Zm0-25.91V223.89l-32.16,37.84Z" style="fill:#FD8383"></path><path d="M202.3,249.51q0-34.29,12.34-48t37.61-13.7q12.13,0,19.93,3a36.79,36.79,0,0,1,12.71,7.79,41.59,41.59,0,0,1,7.75,10.09,52.38,52.38,0,0,1,4.55,12.34,115.36,115.36,0,0,1,3.36,28q0,32.72-11.07,47.89t-38.13,15.18q-15.18,0-24.53-4.84a39.76,39.76,0,0,1-15.33-14.19q-4.35-6.64-6.77-18.17A124.33,124.33,0,0,1,202.3,249.51Zm33.14.08q0,23,4.05,31.37t11.77,8.41a12.34,12.34,0,0,0,8.82-3.57q3.74-3.57,5.5-11.28t1.76-24q0-23.94-4.06-32.19t-12.18-8.24q-8.28,0-12,8.41T235.44,249.59Z" style="fill:#FD8383"></path><path d="M371.74,287.64H310.89V260.17l60.85-72.34h29.12v73.9H416v25.91H400.86v22.48H371.74Zm0-25.91V223.89l-32.15,37.84Z" style="fill:#FD8383"></path></g><g id="freepik--Planets--inject-12"><g style="opacity:0.30000000000000004"><path d="M201,145.62a1.87,1.87,0,1,1-1.86-1.87A1.86,1.86,0,0,1,201,145.62Z" style="fill:#FD8383"></path><circle cx="72.97" cy="216.13" r="1.32" style="fill:#FD8383"></circle><circle cx="291.05" cy="408.33" r="1.89" style="fill:#FD8383"></circle><circle cx="336.5" cy="332" r="1.32" style="fill:#FD8383"></circle><path d="M424.17,95.62a1.32,1.32,0,1,1-1.32-1.32A1.32,1.32,0,0,1,424.17,95.62Z" style="fill:#FD8383"></path><path d="M172.75,69a1.32,1.32,0,1,1-1.32-1.32A1.33,1.33,0,0,1,172.75,69Z" style="fill:#FD8383"></path><circle cx="277.7" cy="136.94" r="1.32" style="fill:#FD8383"></circle></g><circle cx="141.23" cy="116.36" r="21.91" style="fill:#FD8383"></circle><circle cx="141.23" cy="116.36" r="21.91" style="fill:#fff;opacity:0.7000000000000001"></circle><path d="M133.68,99.83A21.84,21.84,0,0,0,125,101.6a21.92,21.92,0,0,0,24.87,34.89h0a21.92,21.92,0,0,0-16.23-36.65Z" style="fill:#FD8383;opacity:0.2"></path><path d="M131.5,105.62a2,2,0,1,1-2-2A2,2,0,0,1,131.5,105.62Z" style="fill:#FD8383;opacity:0.2"></path><path d="M155.06,103.62a2,2,0,1,1-2-2A2,2,0,0,1,155.06,103.62Z" style="fill:#FD8383;opacity:0.2"></path><path d="M151.06,117.9a3.28,3.28,0,1,1-3.28-3.28A3.28,3.28,0,0,1,151.06,117.9Z" style="fill:#FD8383;opacity:0.2"></path><path d="M140.64,127.25a4.38,4.38,0,1,1-4.38-4.38A4.38,4.38,0,0,1,140.64,127.25Z" style="fill:#FD8383;opacity:0.2"></path><circle cx="382.2" cy="376.25" r="19.23" transform="translate(-71.8 661.78) rotate(-76.72)" style="fill:#FD8383"></circle><circle cx="382.2" cy="376.25" r="19.23" transform="translate(-71.8 661.78) rotate(-76.72)" style="fill:#fff;opacity:0.30000000000000004"></circle><path d="M394.33,361.34a19.22,19.22,0,0,0-17.67,33.32,19,19,0,0,0,5.53.82,19.23,19.23,0,0,0,12.14-34.14Z" style="fill:#FD8383;opacity:0.4"></path><path d="M363.83,382c-20.53,9.66-5.22,17.11,23.71,6.71,26.79-9.63,37-21.77,13-18C401.83,375.76,368.28,388.83,363.83,382Z" style="fill:#FD8383"></path></g></svg>